<?xml version="1.0" encoding="utf-8"?>
<!-- Generator: Adobe Illustrator 23.1.0, SVG Export Plug-In . SVG Version: 6.00 Build 0)  -->
<svg version="1.1" id="Layer_1" xmlns="http://www.w3.org/2000/svg" xmlns:xlink="http://www.w3.org/1999/xlink" x="0px" y="0px"
	 viewBox="0 0 758.7 759.7" style="enable-background:new 0 0 758.7 759.7;" xml:space="preserve">
<style type="text/css">
	.st0{fill:none;stroke:#444153;stroke-width:23;stroke-miterlimit:10;}
	.st1{fill:#AA7D47;}
	.st2{fill:#444153;}
</style>
<polygon class="st0" points="191.6,37.5 38,303.5 345.2,303.5 "/>
<g>
	<rect x="167.8" y="220" class="st1" width="23.8" height="23.8"/>
	<rect x="191.6" y="220" class="st1" width="23.8" height="23.8"/>
	<rect x="143.9" y="243.9" class="st1" width="23.8" height="23.8"/>
	<rect x="215.5" y="243.9" class="st1" width="23.8" height="23.8"/>
	<rect x="143.9" y="267.7" class="st1" width="23.8" height="23.8"/>
	<rect x="215.5" y="267.7" class="st1" width="23.8" height="23.8"/>
	<rect x="143.9" y="291.6" class="st1" width="23.8" height="23.8"/>
	<rect x="215.5" y="291.6" class="st1" width="23.8" height="23.8"/>
	<rect x="143.9" y="315.4" class="st1" width="23.8" height="23.8"/>
	<rect x="215.5" y="315.4" class="st1" width="23.8" height="23.8"/>
	<rect x="143.9" y="339.3" class="st1" width="23.8" height="23.8"/>
	<rect x="215.5" y="339.3" class="st1" width="23.8" height="23.8"/>
	<rect x="239.3" y="339.3" class="st1" width="23.8" height="23.8"/>
	<rect x="263.2" y="339.3" class="st1" width="23.8" height="23.8"/>
	<rect x="143.9" y="363.1" class="st1" width="23.8" height="23.8"/>
	<rect x="215.5" y="363.1" class="st1" width="23.8" height="23.8"/>
	<rect x="287" y="363.1" class="st1" width="23.8" height="23.8"/>
	<rect x="310.9" y="363.1" class="st1" width="23.8" height="23.8"/>
	<rect x="334.7" y="363.1" class="st1" width="23.8" height="23.8"/>
	<rect x="143.9" y="387" class="st1" width="23.8" height="23.8"/>
	<rect x="215.5" y="387" class="st1" width="23.8" height="23.8"/>
	<rect x="287" y="387" class="st1" width="23.8" height="23.8"/>
	<rect x="358.6" y="387" class="st1" width="23.8" height="23.8"/>
	<rect x="382.4" y="387" class="st1" width="23.8" height="23.8"/>
	<rect x="143.9" y="410.8" class="st1" width="23.8" height="23.8"/>
	<rect x="215.5" y="410.8" class="st1" width="23.8" height="23.8"/>
	<rect x="287" y="410.8" class="st1" width="23.8" height="23.8"/>
	<rect x="358.6" y="410.8" class="st1" width="23.8" height="23.8"/>
	<rect x="406.3" y="410.8" class="st1" width="23.8" height="23.8"/>
	<rect x="48.5" y="434.7" class="st1" width="23.8" height="23.8"/>
	<rect x="72.4" y="434.7" class="st1" width="23.8" height="23.8"/>
	<rect x="96.2" y="434.7" class="st1" width="23.8" height="23.8"/>
	<rect x="143.9" y="434.7" class="st1" width="23.8" height="23.8"/>
	<rect x="215.5" y="434.7" class="st1" width="23.8" height="23.8"/>
	<rect x="287" y="434.7" class="st1" width="23.8" height="23.8"/>
	<rect x="287" y="458.5" class="st1" width="23.8" height="23.8"/>
	<rect x="358.6" y="434.7" class="st1" width="23.8" height="23.8"/>
	<rect x="430.1" y="434.7" class="st1" width="23.8" height="23.8"/>
	<rect x="48.5" y="458.5" class="st1" width="23.8" height="23.8"/>
	<rect x="120.1" y="458.5" class="st1" width="23.8" height="23.8"/>
	<rect x="143.9" y="458.5" class="st1" width="23.8" height="23.8"/>
	<rect x="358.6" y="458.5" class="st1" width="23.8" height="23.8"/>
	<rect x="358.6" y="482.4" class="st1" width="23.8" height="23.8"/>
	<rect x="430.1" y="458.5" class="st1" width="23.8" height="23.8"/>
	<rect x="48.5" y="482.4" class="st1" width="23.8" height="23.8"/>
	<rect x="143.9" y="482.4" class="st1" width="23.8" height="23.8"/>
	<rect x="430.1" y="482.4" class="st1" width="23.8" height="23.8"/>
	<rect x="72.4" y="506.2" class="st1" width="23.8" height="23.8"/>
	<rect x="430.1" y="506.2" class="st1" width="23.8" height="23.8"/>
	<rect x="96.2" y="530.1" class="st1" width="23.8" height="23.8"/>
	<rect x="430.1" y="530.1" class="st1" width="23.8" height="23.8"/>
	<rect x="96.2" y="553.9" class="st1" width="23.8" height="23.8"/>
	<rect x="430.1" y="553.9" class="st1" width="23.8" height="23.8"/>
	<rect x="120.1" y="577.8" class="st1" width="23.8" height="23.8"/>
	<rect x="430.1" y="577.8" class="st1" width="23.8" height="23.8"/>
	<rect x="120.1" y="601.6" class="st1" width="23.8" height="23.8"/>
	<rect x="406.3" y="601.6" class="st1" width="23.8" height="23.8"/>
	<rect x="143.9" y="625.5" class="st1" width="23.8" height="23.8"/>
	<rect x="406.3" y="625.5" class="st1" width="23.8" height="23.8"/>
	<rect x="143.9" y="649.3" class="st1" width="23.8" height="23.8"/>
	<rect x="406.3" y="649.3" class="st1" width="23.8" height="23.8"/>
	<rect x="167.8" y="673.1" class="st1" width="23.8" height="23.8"/>
	<rect x="382.4" y="673.1" class="st1" width="23.8" height="23.8"/>
	<rect x="167.8" y="697" class="st1" width="23.8" height="23.8"/>
	<rect x="382.4" y="697" class="st1" width="23.8" height="23.8"/>
	<rect x="167.8" y="720.8" class="st1" width="23.8" height="23.8"/>
	<rect x="191.6" y="720.8" class="st1" width="23.8" height="23.8"/>
	<rect x="215.5" y="720.8" class="st1" width="23.8" height="23.8"/>
	<rect x="239.3" y="720.8" class="st1" width="23.8" height="23.8"/>
	<rect x="263.2" y="720.8" class="st1" width="23.8" height="23.8"/>
	<rect x="287" y="720.8" class="st1" width="23.8" height="23.8"/>
	<rect x="310.9" y="720.8" class="st1" width="23.8" height="23.8"/>
	<rect x="334.7" y="720.8" class="st1" width="23.8" height="23.8"/>
	<rect x="358.6" y="720.8" class="st1" width="23.8" height="23.8"/>
	<rect x="382.4" y="720.8" class="st1" width="23.8" height="23.8"/>
</g>
<path class="st2" d="M453,532c-24.8,0-48.6,11.3-68.9,32.7c-5.5,5.8-10.1,11.6-13.6,16.7c-3.6-5-8.1-10.8-13.6-16.7
	C336.6,543.4,312.7,532,288,532c-38.4,0-69.6,31.2-69.6,69.6c0,38.4,31.2,69.6,69.6,69.6c24.8,0,48.6-11.3,68.9-32.7
	c5.5-5.8,10.1-11.6,13.6-16.7c3.6,5,8.1,10.8,13.6,16.7c20.3,21.4,44.1,32.7,68.9,32.7c38.4,0,69.6-31.2,69.6-69.6
	C522.5,563.3,491.3,532,453,532z M288,649.2c-26.2,0-47.6-21.3-47.6-47.6c0-26.2,21.3-47.6,47.6-47.6c37,0,61.5,34.6,69.4,47.6
	C349.5,614.7,325.2,649.2,288,649.2z M453,649.2c-37,0-61.5-34.5-69.4-47.6c7.9-13,32.4-47.6,69.4-47.6c26.2,0,47.6,21.3,47.6,47.6
	C500.5,627.8,479.2,649.2,453,649.2z"/>
</svg>
