<svg width="100" height="100" xmlns="http://www.w3.org/2000/svg"><style>path { fill: #000; } @media (prefers-color-scheme: dark) { path { fill: #fff; }}</style><path d="m74.5 14.8c-3.7-.4-7.5-.1-11.2.9-3.4 1-6.7 2.7-9.5 4.9-2.7 2.2-5 5-6.6 8.1-.9 1.7-1.6 3.4-2.2 5.3s-1 3.9-1.4 5.8c-.4 2-.5 4.2-.7 6.1-.2 2-.3 4-.4 6s-.4 4.2-.6 6.2-.4 4-.7 5.9c-.3 1.8-.7 3.7-1.4 5.4-.6 1.6-1.2 2.9-2.1 4.3-1.9 2.8-4.6 5.1-7.9 6.2-3.2 1.1-6.7.9-9.7-.6-.8-.4-1.5-.8-2.2-1.4l-3.7 3.7c2.1 1.2 4.3 2.1 6.7 2.6 5.1 1.3 10.5 1.1 15.5-.5 2.4-.8 4.6-1.8 6.7-3.2 2-1.4 3.9-3 5.4-4.8 1.6-1.9 2.9-4 3.9-6.3 1-2.4 1.7-5 2.3-7.5.3-1.3.5-2.7.7-4 .1-.3.2-1.5.2-1.5s1.4.2 2.1.2c2.6.1 5.3-.2 7.8-1 2.4-.7 4.6-1.8 6.6-3.3 1.9-1.4 3.6-3.1 5-5-1.4-.9-3.1-1.3-4.9-1.2-1.5.1-3 .6-4.2 1.6-.6.5-1.2 1.1-1.7 1.6-.6.5-1.2 1-1.9 1.5-2.5 1.7-5.4 2.8-8.4 3.1.1-1 .2-2 .3-3 .1-2.1.2-4.1.3-6.2.1-1.4.2-2.7.3-4.1.2-2.4.6-4.8 1.1-7.1.2-1.1.5-2.3.9-3.3.4-1.1.9-2.1 1.5-3 1.8-3 4.4-5.6 7.7-7 3.1-1.3 6.7-1.4 9.9-.1 1.1.4 2.1 1 3 1.7l3.7-3.7c-3.1-1.8-6.6-2.9-10.2-3.3z"/><path d="m96.9 35.3c-.5-3.6-1.9-7.1-4.1-10.1-1.1-1.5-2.4-3-3.9-4.2l-4.4 4.4c.3.4.6.8.8 1.3 1.8 3.1 2.8 6.7 2.9 10.4.1 3.8-.7 7.5-2.3 10.9-5.1 10.1-16.9 14.9-27.6 11.1.2.2.4.4.7.6 1.5 1.5 2.6 3.4 3.3 5.5.7 2.3.7 4.7.1 7-.6 2.1-1.7 4.1-3.2 5.6-1.5 1.6-3.4 2.8-5.5 3.5-2.2.8-4.7 1-7 .6.3.1.6.3.9.4 2.5 1 5.2 1.3 7.8.8 2.5-.4 4.8-1.4 6.8-2.9 1.9-1.5 3.4-3.4 4.2-5.7.9-2.5 1-5.1.2-7.6-.7-2.3-2.1-4.3-3.9-5.8 1.7.5 3.4.9 5.2 1 3.1.3 6.3.1 9.3-.5 2.9-.6 5.6-1.8 8.2-3.3 1.5-.9 3-2 4.3-3.3 2.6-2.4 4.6-5.3 5.9-8.6 1.3-3.5 1.8-7.3 1.3-11.1z"/><path d="m10.3 78.9 4.3-4.3c-.5-.6-.9-1.3-1.3-2-1.7-3.1-2.5-6.7-2.5-10.3 0-3.7.8-7.4 2.5-10.7 5.2-9.9 16.9-14.5 27.5-10.8-.2-.2-.4-.4-.7-.6-1.5-1.5-2.7-3.4-3.3-5.5-.7-2.3-.7-4.7 0-7.1.6-2.1 1.7-4 3.2-5.6 1.5-1.5 3.4-2.7 5.4-3.4 2.2-.8 4.6-1 6.9-.6-.3-.1-.6-.3-.9-.4-2.5-1-5.2-1.3-7.8-.8-2.5.4-4.8 1.4-6.8 2.9-1.9 1.5-3.3 3.4-4.2 5.7-.9 2.5-1 5.1-.2 7.6.7 2.3 2.1 4.3 3.9 5.8-1.2-.4-2.5-.7-3.7-.8-2.7-.4-5.4-.5-8.1-.1-2.5.3-5 1-7.4 2-2.3 1-4.4 2.3-6.4 3.8-1.9 1.5-3.6 3.3-4.9 5.4-1.4 2.1-2.5 4.3-3.1 6.8-1.3 4.9-.9 10.3 1.4 15.1 1.1 2.2 2.5 4.3 4.2 6.1.6.6 1.3 1.2 2 1.8z"/></svg>
