<?xml version="1.0" encoding="utf-8"?>
<!-- Generator: Adobe Illustrator 23.1.0, SVG Export Plug-In . SVG Version: 6.00 Build 0)  -->
<svg version="1.1" id="Layer_1" xmlns="http://www.w3.org/2000/svg" xmlns:xlink="http://www.w3.org/1999/xlink" x="0px" y="0px"
	 viewBox="0 0 760 759.7" style="enable-background:new 0 0 760 759.7;" xml:space="preserve">
<style type="text/css">
	.st0{fill:#444153;}
	.st1{fill:#AA7D47;}
</style>
<g>
	<path class="st0" d="M490,314.7H143L316.5,14.2L490,314.7z M182.8,291.7h267.4L316.5,60.1L182.8,291.7z"/>
</g>
<g>
	<rect x="292.7" y="219.7" class="st1" width="23.8" height="23.8"/>
	<rect x="316.5" y="219.7" class="st1" width="23.8" height="23.8"/>
	<rect x="268.8" y="243.6" class="st1" width="23.8" height="23.8"/>
	<rect x="340.4" y="243.6" class="st1" width="23.8" height="23.8"/>
	<rect x="268.8" y="267.4" class="st1" width="23.8" height="23.8"/>
	<rect x="340.4" y="267.4" class="st1" width="23.8" height="23.8"/>
	<rect x="268.8" y="291.3" class="st1" width="23.8" height="23.8"/>
	<rect x="340.4" y="291.3" class="st1" width="23.8" height="23.8"/>
	<rect x="268.8" y="315.1" class="st1" width="23.8" height="23.8"/>
	<rect x="340.4" y="315.1" class="st1" width="23.8" height="23.8"/>
	<rect x="268.8" y="339" class="st1" width="23.8" height="23.8"/>
	<rect x="340.4" y="339" class="st1" width="23.8" height="23.8"/>
	<rect x="364.2" y="339" class="st1" width="23.8" height="23.8"/>
	<rect x="388.1" y="339" class="st1" width="23.8" height="23.8"/>
	<rect x="268.8" y="362.8" class="st1" width="23.8" height="23.8"/>
	<rect x="340.4" y="362.8" class="st1" width="23.8" height="23.8"/>
	<rect x="411.9" y="362.8" class="st1" width="23.8" height="23.8"/>
	<rect x="435.8" y="362.8" class="st1" width="23.8" height="23.8"/>
	<rect x="459.6" y="362.8" class="st1" width="23.8" height="23.8"/>
	<rect x="268.8" y="386.7" class="st1" width="23.8" height="23.8"/>
	<rect x="340.4" y="386.7" class="st1" width="23.8" height="23.8"/>
	<rect x="411.9" y="386.7" class="st1" width="23.8" height="23.8"/>
	<rect x="483.5" y="386.7" class="st1" width="23.8" height="23.8"/>
	<rect x="507.3" y="386.7" class="st1" width="23.8" height="23.8"/>
	<rect x="268.8" y="410.5" class="st1" width="23.8" height="23.8"/>
	<rect x="340.4" y="410.5" class="st1" width="23.8" height="23.8"/>
	<rect x="411.9" y="410.5" class="st1" width="23.8" height="23.8"/>
	<rect x="483.5" y="410.5" class="st1" width="23.8" height="23.8"/>
	<rect x="531.2" y="410.5" class="st1" width="23.8" height="23.8"/>
	<rect x="173.4" y="434.4" class="st1" width="23.8" height="23.8"/>
	<rect x="197.3" y="434.4" class="st1" width="23.8" height="23.8"/>
	<rect x="221.1" y="434.4" class="st1" width="23.8" height="23.8"/>
	<rect x="268.8" y="434.4" class="st1" width="23.8" height="23.8"/>
	<rect x="340.4" y="434.4" class="st1" width="23.8" height="23.8"/>
	<rect x="411.9" y="434.4" class="st1" width="23.8" height="23.8"/>
	<rect x="411.9" y="458.2" class="st1" width="23.8" height="23.8"/>
	<rect x="483.5" y="434.4" class="st1" width="23.8" height="23.8"/>
	<rect x="555" y="434.4" class="st1" width="23.8" height="23.8"/>
	<rect x="173.4" y="458.2" class="st1" width="23.8" height="23.8"/>
	<rect x="245" y="458.2" class="st1" width="23.8" height="23.8"/>
	<rect x="268.8" y="458.2" class="st1" width="23.8" height="23.8"/>
	<rect x="483.5" y="458.2" class="st1" width="23.8" height="23.8"/>
	<rect x="483.5" y="482.1" class="st1" width="23.8" height="23.8"/>
	<rect x="555" y="458.2" class="st1" width="23.8" height="23.8"/>
	<rect x="173.4" y="482.1" class="st1" width="23.8" height="23.8"/>
	<rect x="268.8" y="482.1" class="st1" width="23.8" height="23.8"/>
	<rect x="555" y="482.1" class="st1" width="23.8" height="23.8"/>
	<rect x="197.3" y="505.9" class="st1" width="23.8" height="23.8"/>
	<rect x="555" y="505.9" class="st1" width="23.8" height="23.8"/>
	<rect x="221.1" y="529.8" class="st1" width="23.8" height="23.8"/>
	<rect x="555" y="529.8" class="st1" width="23.8" height="23.8"/>
	<rect x="221.1" y="553.6" class="st1" width="23.8" height="23.8"/>
	<rect x="555" y="553.6" class="st1" width="23.8" height="23.8"/>
	<rect x="245" y="577.5" class="st1" width="23.8" height="23.8"/>
	<rect x="555" y="577.5" class="st1" width="23.8" height="23.8"/>
	<rect x="245" y="601.2" class="st1" width="23.8" height="23.8"/>
	<rect x="531.2" y="601.2" class="st1" width="23.8" height="23.8"/>
	<rect x="268.8" y="625.2" class="st1" width="23.8" height="23.8"/>
	<rect x="531.2" y="625.2" class="st1" width="23.8" height="23.8"/>
	<rect x="268.8" y="649" class="st1" width="23.8" height="23.8"/>
	<rect x="531.2" y="649" class="st1" width="23.8" height="23.8"/>
	<rect x="292.7" y="672.8" class="st1" width="23.8" height="23.8"/>
	<rect x="507.3" y="672.8" class="st1" width="23.8" height="23.8"/>
	<rect x="292.7" y="696.7" class="st1" width="23.8" height="23.8"/>
	<rect x="507.3" y="696.7" class="st1" width="23.8" height="23.8"/>
	<rect x="292.7" y="720.5" class="st1" width="23.8" height="23.8"/>
	<rect x="316.5" y="720.5" class="st1" width="23.8" height="23.8"/>
	<rect x="340.4" y="720.5" class="st1" width="23.8" height="23.8"/>
	<rect x="364.2" y="720.5" class="st1" width="23.8" height="23.8"/>
	<rect x="388.1" y="720.5" class="st1" width="23.8" height="23.8"/>
	<rect x="411.9" y="720.5" class="st1" width="23.8" height="23.8"/>
	<rect x="435.8" y="720.5" class="st1" width="23.8" height="23.8"/>
	<rect x="459.6" y="720.5" class="st1" width="23.8" height="23.8"/>
	<rect x="483.5" y="720.5" class="st1" width="23.8" height="23.8"/>
	<rect x="507.3" y="720.5" class="st1" width="23.8" height="23.8"/>
</g>
<path class="st0" d="M577.9,531.7c-24.8,0-48.6,11.3-68.9,32.7c-5.5,5.8-10.1,11.6-13.6,16.7c-3.6-5-8.1-10.8-13.6-16.7
	c-20.3-21.3-44.2-32.7-68.9-32.7c-38.4,0-69.6,31.2-69.6,69.6c0,38.4,31.2,69.6,69.6,69.6c24.8,0,48.6-11.3,68.9-32.7
	c5.5-5.8,10.1-11.6,13.6-16.7c3.6,5,8.1,10.8,13.6,16.7c20.3,21.4,44.1,32.7,68.9,32.7c38.4,0,69.6-31.2,69.6-69.6
	C647.4,563,616.2,531.7,577.9,531.7z M412.9,648.9c-26.2,0-47.6-21.3-47.6-47.6c0-26.2,21.3-47.6,47.6-47.6
	c37,0,61.5,34.6,69.4,47.6C474.4,614.4,450.1,648.9,412.9,648.9z M577.9,648.9c-37,0-61.5-34.5-69.4-47.6
	c7.9-13,32.4-47.6,69.4-47.6c26.2,0,47.6,21.3,47.6,47.6C625.4,627.5,604.1,648.9,577.9,648.9z"/>
</svg>
