<svg viewBox="0 0 759.69 759.69" xmlns="http://www.w3.org/2000/svg"><path d="m707 545.78h-327.93l164-284zm-288.11-23h248.3l-124.14-215z" fill="#a33b20"/><g fill="#aa7d47"><path d="m228.66 220v-23.8h-47.6v23.8z"/><path d="m157.16 243.88v190.8h-23.8v23.8h23.8v23.9h23.84v-262.3h-23.8z"/><path d="m300.26 387v71.5h23.8v-95.3h47.7v-23.9h-71.5z"/><path d="m419.56 386.98h23.8v23.8h-23.8z"/><path d="m61.76 410.88v71.5h23.8v-47.7h47.7v-23.8z"/><path d="m252.56 410.88v-71.6h47.7v-23.8h-47.7v-95.4h-23.8v214.6h23.8z"/><path d="m443.36 410.88v166.9h23.8v-166.9z"/><path d="m371.86 363.18v119.2h23.8v-95.38h23.8v-23.8z"/><path d="m85.66 482.38h23.8v23.8h-23.8z"/><path d="m109.46 530.08v23.8h23.8v-47.6h-23.8z"/><path d="m157.16 577.78v-23.78h-23.8v47.6h23.8z"/><path d="m157.16 625.48v23.8h23.84v-47.6h-23.8z"/><path d="m419.56 601.58v47.7h23.8v-71.5h-23.8z"/><path d="m395.66 673.18v23.82h-190.8v-47.7h-23.8v71.5h238.4v-71.5h-23.8z"/></g><path d="m287.26 42.78c-24.8 0-48.6 11.3-68.9 32.7a139.11 139.11 0 0 0 -13.6 16.7 170.28 170.28 0 0 0 -13.6-16.7c-20.3-21.3-44.2-32.7-68.9-32.7a69.6 69.6 0 0 0 0 139.2c24.8 0 48.6-11.3 68.9-32.7a139.11 139.11 0 0 0 13.6-16.7 170.28 170.28 0 0 0 13.6 16.7c20.3 21.4 44.1 32.7 68.9 32.7a69.65 69.65 0 0 0 69.6-69.6c-.1-38.3-31.3-69.6-69.6-69.6zm-165 117.22a47.6 47.6 0 0 1 0-95.2c37 0 61.5 34.6 69.4 47.6-7.9 13.08-32.2 47.6-69.4 47.6zm165 0c-37 0-61.5-34.5-69.4-47.6 7.9-13 32.4-47.6 69.4-47.6a47.6 47.6 0 1 1 0 95.2z" fill="#444153"/></svg>