<svg role="img" aria-label="About banner" enable-background="new 0 0 759.7 759.7" viewBox="0 0 759.7 759.7" xmlns="http://www.w3.org/2000/svg"><path d="m379.9 511.4c-139.5 0-252.7-113.1-252.7-252.7 0-67 26.6-131.3 74-178.6 98.6-98.8 258.5-98.9 357.3-.4s98.9 258.5.4 357.3c-.1.1-.3.3-.4.4-47.3 47.6-111.6 74.2-178.6 74zm0-482.3c-126.8 0-229.7 102.8-229.7 229.6 0 60.9 24.2 119.3 67.3 162.4 89.3 90.1 234.7 90.7 324.8 1.5s90.7-234.7 1.5-324.8c-.5-.5-1-1-1.5-1.5-43-43.1-101.5-67.3-162.4-67.2z" fill="#aa7d47"/><path d="m379.9 752.6c-139.5 0-252.6-113.1-252.6-252.7s113.1-252.6 252.7-252.6 252.5 113.1 252.5 252.7c0 67-26.6 131.3-74 178.6-47.3 47.5-111.6 74.2-178.6 74zm0-482.3c-126.8 0-229.7 102.8-229.7 229.7s102.8 229.6 229.6 229.6 229.7-102.8 229.7-229.7c0-60.9-24.2-119.3-67.3-162.4-42.9-43.2-101.4-67.4-162.3-67.2z" fill="#aa7d47"/><path d="m251.1 379.3c0-77.5 58.4-130.7 135.2-130.7 69.7 0 122.3 43.6 122.3 113.3 0 51.6-22 85.2-61.3 85.2-17.4 0-31.3-8.7-33.9-22h-1.3c-9 14.2-22.6 21-40.4 21-32.6 0-52.6-26.5-52.6-63.6 0-36.8 20.7-65.2 55.2-65.2 14.2 0 28.7 7.8 34.9 19.4h1.3l2.3-15.8h26.1l-2.9 82.6c-.3 10.3 2.9 17.4 15.2 17.4 19.4 0 30-24.9 30-59.1 0-52.3-37.8-87.5-95.9-87.5-63.3 0-105.5 47.1-105.5 106.8 0 63.9 42.6 105.7 103.9 105.3 22.3 0 44.6-2.7 66.2-8.3v23.5c-19.9 5.8-42.6 7.9-66.5 7.9-76.2.2-132.3-46.3-132.3-130.2zm157.5 0c0-22.9-12-35.8-29.4-35.8-19.4 0-30 16.1-30 39.4 0 22.3 10 36.5 28.1 36.5 21.6-.1 31.3-17.5 31.3-40.1z" fill="#444153"/></svg>
