<svg role="img" aria-label="Home banner" viewBox="0 0 759.69 759.69" xmlns="http://www.w3.org/2000/svg"><path d="m45.09 486.75 46.31-223-.57-.37c-79.99-52.8-50.83-183.38 55.53-186.38 98.23 2 138 121.63 61.6 182.23l-1.28 1c-.41.34-.82.68-1.26 1l-.48.38 43 225.12zm27.57-22.44h148.12l-40.45-212 13.67-10.7c14.73-11.86 24.47-26.24 28.95-42.73 12.22-47.1-20-98.26-76.47-99.48-19.58.58-36.38 6.4-49.95 17.3a77.15 77.15 0 0 0 -25.72 39.22c-7.5 26.08-3.5 65 32.42 88.74l13.24 8.76z" fill="#aa7d47"/><path d="m534.81 745.84h-398.58v-392c-.44-7.71-4.78-99.71 50.56-195.35 50.48-87.08 139.65-139.42 143.46-141.63l5.23-3 5.22 2.92c3.9 2.22 95.55 54.72 143.64 141.85 53 96.09 50.74 188.54 50.47 195zm-377.59-21.08h356.52v-371.66c0-.89 3-92-47.91-184.19-38.97-70.49-110.43-118.22-130.35-130.53-19.57 12.39-89.71 60.21-130.62 130.7-53.22 91.92-47.86 182.92-47.73 183.75v371.93z" fill="#444153"/><path d="m612.89 660.91-59.95-112.81-57.47 71-27.28-304.52 237.15 193-91 8 60 112.82zm-56.68-147 64.56 121.32 27.89-14.79-64.55-121.31 73-6.38-166.11-135.13 19.13 213.23z" fill="#fbfbfb"/></svg>
