<svg enable-background="new 0 0 755.3 850.4" viewBox="0 0 755.3 850.4" xmlns="http://www.w3.org/2000/svg"><path d="m181.2 258.2c80.2-64.4 34.7-185.9-63.3-187.1-108.2 2.7-139.8 136.6-57 191.4l-47.2 227.3h208.7l-43.8-229.5c.9-.7 1.7-1.4 2.6-2.1z" fill="#aa7d47"/><path d="m553.8 838.5h-450.1v-442.7c-.5-8.7-5.4-112.6 57.1-220.6 57-98.3 157.7-157.4 162-159.9l5.9-3.4 5.9 3.3c4.4 2.5 107.9 61.8 162.2 160.2 59.9 108.5 57.3 212.9 57 220.2zm-426.4-23.8h402.6v-419.5-.2c0-1 3.4-103.9-54.1-208-44-79.6-124.7-133.5-147.2-147.4-22.1 14-101.3 68-147.5 147.6-60.1 103.8-54 206.5-53.9 207.5v.8 419.2z" fill="#444153"/><path d="m639.5 771.6-67.7-127.4-64.9 80.2-30.8-343.9 267.8 217.9-102.8 9 67.7 127.4zm-64-166 72.9 137 31.5-16.7-72.9-137 82.4-7.2-187.5-152.6 21.6 240.8z" fill="#aa7d47"/></svg>