<svg viewBox="0 0 759.7 759.7" xmlns="http://www.w3.org/2000/svg"><path d="m339.96 497.82h-19.69l14.47 25.06h30.44l-14.48-25.06z" fill="#444153"/><path d="m719.56 378.57a144.53 144.53 0 0 0 -88.95-133.26c-49.22-129.16-206.81-174.31-316.45-91.56-63.61-18.27-126.34 21.34-140.4 82.71-122.9 23.38-160.5 175.62-66.09 253.84l12.73-22.05c-82.24-74.12-31.66-205.25 75.71-208.89.88-49.66 44.19-89.13 94.44-84.64a86 86 0 0 1 28.37 7.51c101.38-88.23 253.6-40.55 291.84 82.5 120.3 41 106.83 207.87-15.36 231.38l-15.4 26.69c77.38-2.52 139.56-66.24 139.56-144.23z" fill="#444153"/><path d="m334.74 522.88-14.47-25.06-108.47-187.88-91.4 158.31-12.73 22.05-64.31 111.39h336.88zm-122.94-166.94 81.91 141.88h-94.81a118.44 118.44 0 0 1 -59.73-16.08zm-85.16 147.5a143.34 143.34 0 0 0 72.26 19.44h109.28l32.22 55.81h-257.21z" fill="#aa7d47"/><path d="m304.12 417.13 46.58 80.69 14.47 25.06 107.39 186 107.44-186.08 15.41-26.69 45.6-79zm168.44 245.75-80.83-140h161.65zm95.3-165.06h-190.6l-33.26-57.69h257.2z" fill="#a33b20"/></svg>