<svg xmlns="http://www.w3.org/2000/svg" viewBox="0 0 1586 934.5"><defs><style>.a{fill:none;stroke:#d8d5ce;stroke-miterlimit:10;}</style></defs><circle class="a" cx="188.5" cy="654" r="39"/><circle class="a" cx="1173.5" cy="617" r="52"/><circle class="a" cx="644.5" cy="577" r="40"/><circle class="a" cx="1094.5" cy="291" r="27"/><circle class="a" cx="552.5" cy="133" r="32"/><circle class="a" cx="604.41" cy="507.45" r="17.09"/><path class="a" d="M13,0A797,797,0,0,0,.5,141C.5,578.69,355.31,933.5,793,933.5S1585.5,578.69,1585.5,141A797,797,0,0,0,1573,0Z" transform="translate(0 0.5)"/><path class="a" d="M200.81.5A610.18,610.18,0,0,0,184.5,141c0,336.07,272.43,608.5,608.5,608.5S1401.5,477.07,1401.5,141A610.18,610.18,0,0,0,1385.19.5Z" transform="translate(0 0.5)"/><path class="a" d="M354.34.5A460,460,0,0,0,332.5,141c0,254.33,206.17,460.5,460.5,460.5S1253.5,395.33,1253.5,141A460,460,0,0,0,1231.66.5Z" transform="translate(0 0.5)"/><path class="a" d="M487.17.5A335.16,335.16,0,0,0,456.5,141c0,185.84,150.66,336.5,336.5,336.5S1129.5,326.84,1129.5,141A335.16,335.16,0,0,0,1098.83.5Z" transform="translate(0 0.5)"/><path class="a" d="M597.8.5A239.41,239.41,0,0,0,552.5,141c0,132.82,107.68,240.5,240.5,240.5S1033.5,273.82,1033.5,141A239.41,239.41,0,0,0,988.2.5Z" transform="translate(0 0.5)"/><line class="a" x1="537" y1="105" x2="555" y2="105"/><line class="a" x1="529" y1="111.22" x2="554" y2="111.22"/><line class="a" x1="524" y1="117.44" x2="554" y2="117.44"/><line class="a" x1="521.62" y1="123.67" x2="553" y2="123.67"/><line class="a" x1="521" y1="129.89" x2="553" y2="129.89"/><line class="a" x1="521" y1="136.11" x2="553" y2="136.11"/><line class="a" x1="521.62" y1="142.33" x2="553" y2="142.33"/><line class="a" x1="525" y1="148.56" x2="553" y2="148.56"/><line class="a" x1="529" y1="154.78" x2="553" y2="154.78"/><line class="a" x1="537" y1="161" x2="553" y2="161"/><line class="a" x1="1103" y1="271.8" x2="1113" y2="271.8"/><line class="a" x1="1101" y1="276.6" x2="1117" y2="276.6"/><line class="a" x1="1099" y1="281.4" x2="1120" y2="281.4"/><line class="a" x1="1097" y1="286.2" x2="1121" y2="286.2"/><line class="a" x1="1094" y1="291" x2="1121" y2="291"/><line class="a" x1="1092" y1="295.8" x2="1121" y2="295.8"/><line class="a" x1="1089" y1="300.6" x2="1120" y2="300.6"/><line class="a" x1="1087" y1="305.4" x2="1117" y2="305.4"/><line class="a" x1="1084" y1="310.2" x2="1114" y2="310.2"/><line class="a" x1="1082.5" y1="315" x2="1107" y2="315"/><line class="a" x1="605" y1="569" x2="621" y2="569"/><line class="a" x1="604.06" y1="575" x2="637" y2="575"/><line class="a" x1="605" y1="581" x2="656" y2="581"/><line class="a" x1="606" y1="587" x2="676" y2="587"/><line class="a" x1="608" y1="593" x2="681" y2="593"/><line class="a" x1="611" y1="599" x2="678" y2="599"/><line class="a" x1="616" y1="605" x2="673" y2="605"/><line class="a" x1="623" y1="611" x2="666" y2="611"/><line class="a" x1="158" y1="630" x2="169" y2="630"/><line class="a" x1="153" y1="637" x2="175" y2="637"/><line class="a" x1="151" y1="644" x2="180" y2="644"/><line class="a" x1="149.5" y1="651" x2="186" y2="651"/><line class="a" x1="149.5" y1="658" x2="192" y2="658"/><line class="a" x1="151" y1="665" x2="198" y2="665"/><line class="a" x1="154" y1="672" x2="204" y2="672"/><line class="a" x1="159" y1="679" x2="211" y2="679"/><line class="a" x1="166" y1="686" x2="211" y2="686"/><line class="a" x1="1208" y1="586.33" x2="1216" y2="586.33"/><line class="a" x1="1202" y1="592" x2="1220" y2="592"/><line class="a" x1="1195" y1="598.67" x2="1223" y2="598.67"/><line class="a" x1="1187" y1="605.33" x2="1225" y2="605.33"/><line class="a" x1="1179" y1="612" x2="1225.5" y2="612"/><line class="a" x1="1171" y1="618.67" x2="1225.5" y2="618.67"/><line class="a" x1="1161" y1="626.33" x2="1225" y2="626.33"/><line class="a" x1="1150" y1="634" x2="1223" y2="634"/><line class="a" x1="1140" y1="641.67" x2="1219" y2="641.67"/><line class="a" x1="1133" y1="649.33" x2="1214" y2="649.33"/><line class="a" x1="1140" y1="657" x2="1207" y2="657"/><line class="a" x1="1149" y1="663" x2="1197" y2="663"/></svg>