<svg enable-background="new 0 0 395 395" viewBox="0 0 395 395" xmlns="http://www.w3.org/2000/svg"><g fill="#aa7D47"><path d="m215 102.6 11.3-65.6c.4-1.9-2.7-2.5-3-.5l-11.3 65.6v.3c1 .2 2 .3 2.9.5.1-.1.1-.2.1-.3z"/><path d="m124.1 134-51.1-42.6c-1.6-1.3-3.5 1.1-2 2.4l51.1 42.6c.1.1.2.2.4.2.6-.8 1.3-1.5 1.9-2.3-.1-.1-.2-.2-.3-.3z"/><path d="m44.7 252c-1.9.7-.8 3.6 1.1 2.9l61.7-22.7c-.4-1-.7-1.9-1.1-2.9z"/><path d="m179.3 292.4-11.3 65.6c-.3 1.9 2.7 2.4 3 .5l11.3-65.6c0-.2 0-.4 0-.6-.9-.1-1.8-.3-2.8-.5-.1.2-.2.4-.2.6z"/><path d="m319.8 303.1c1.6 1.2 3.6-1.1 2-2.4l-50.7-42.2c-.7.8-1.3 1.6-2 2.4z"/><path d="m349.8 142.3c1.8-.8.7-3.6-1.1-2.9l-62.2 22.9c.4 1 .7 1.9 1.1 2.9z"/><path d="m19.7 133.3 14.4 5.3c1.9.7 2.9-2.2 1.1-2.9l-14.4-5.3c-1.9-.7-2.9 2.2-1.1 2.9z"/><path d="m63 306.5-11.8 9.8c-1.5 1.3.5 3.6 2 2.4l11.8-9.8c1.5-1.3-.4-3.6-2-2.4z"/><path d="m228.5 376.3c-.3-1.9-3.4-1.4-3 .5l2.6 15.1c.3 2 3.4 1.5 3-.5z"/><path d="m374.3 260.7-14.4-5.3c-1.9-.7-2.9 2.2-1.1 2.9l14.4 5.3c1.9.7 2.9-2.2 1.1-2.9z"/><path d="m331 87.6 11.8-9.8c1.5-1.4-.5-3.7-2-2.5l-11.8 9.9c-1.5 1.3.4 3.6 2 2.4z"/><path d="m164.8 19c.3 1.9 3.4 1.4 3-.5l-2.6-15.1c-.3-2-3.4-1.5-3 .5z"/><path d="m296.3 28.3c.9-1.8-1.7-3.4-2.7-1.6l-50 86.6c.9.5 1.8 1 2.7 1.5z"/><path d="m214 292c-1 .2-2 .3-3 .5l11.2 65.1c.3 1.9 3.4 1.4 3-.5z"/><path d="m97.7 365.8c-1 1.7 1.7 3.2 2.7 1.5l49.7-86.1c-.9-.5-1.8-1-2.7-1.5z"/><path d="m296.2 365.8-49.7-86c-.9.5-1.8 1-2.7 1.5l49.7 86c1.1 1.8 3.7.2 2.7-1.5z"/><path d="m100.4 26.7c-1-1.7-3.6-.2-2.7 1.5l50 86.6c.9-.5 1.8-1 2.7-1.5z"/><path d="m171.1 37.7c-.3-1.9-3.4-1.4-3 .5l11.1 64.6c1-.2 2-.4 3-.5z"/><path d="m78 294c-1.5 1.3.4 3.6 2 2.4l44-36.6c-.7-.8-1.3-1.6-2-2.4z"/><path d="m316 100c1.5-1.3-.4-3.7-2-2.4l-44.3 36.8c.7.8 1.3 1.6 2 2.4z"/><path d="m341.6 248.7-53.7-19.8c-.3 1-.7 1.9-1.1 2.9l53.7 19.8c1.9.6 3-2.3 1.1-2.9z"/><path d="m53.4 142.5c-1.9-.7-2.9 2.2-1.1 2.9l54.1 19.9c.3-1 .7-2 1.1-2.9z"/><path d="m100.9 195.5h-99.7c-2 0-2 3.1 0 3.1h99.7c0-.4 0-.9 0-1.3 0-.6 0-1.2 0-1.8z"/><path d="m392.8 195.5h-99.7v1.8.2 1h99.7c2 0 2-3 0-3z"/><path d="m165.4 105.8-22.6-62.6c-.6-1.9-3.5-.9-2.9 1l22.6 62.6c.1.3.2.5.4.6.9-.3 1.7-.6 2.6-.9 0-.2 0-.5-.1-.7z"/><path d="m102.5 179.3-65.5-11.7c-1.9-.4-2.4 2.6-.5 3l65.5 11.7h.1c.1-1 .3-2 .4-3z"/><path d="m91.6 319.9c-1.3 1.5 1 3.5 2.3 2l42.3-50.2c-.8-.6-1.6-1.3-2.3-2z"/><path d="m228.9 288.2 22.6 62.6c.7 1.9 3.6.9 2.9-1l-22.6-62.6c0-.1-.1-.2-.1-.3-.9.4-1.9.7-2.8 1z"/><path d="m356.5 227.6c1.9.4 2.5-2.6.5-3l-65.2-11.6c-.2 1-.3 2-.5 3z"/><path d="m303.1 74.1c1.3-1.6-1-3.5-2.3-2l-42.9 50.9c.8.6 1.6 1.3 2.3 2z"/><path d="m25.7 223.8-15.1 2.5c-1.9.3-1.4 3.3.5 3l15.1-2.5c1.9-.3 1.5-3.4-.5-3z"/><path d="m134.3 358.4-5.4 14.4c-.7 1.9 2.2 3 2.9 1.1l5.4-14.4c.7-1.8-2.2-2.9-2.9-1.1z"/><path d="m312.7 337.3c-1.3-1.5-3.6.4-2.4 1.9l9.7 11.9c1.3 1.6 3.7-.4 2.4-1.9z"/><path d="m367.7 170.4 15.1-2.5c1.9-.3 1.4-3.4-.5-3l-15.1 2.5c-1.9.3-1.5 3.4.5 3z"/><path d="m259.1 35.8 5.4-14.4c.6-1.9-2.2-3-2.9-1.1l-5.4 14.4c-.7 1.8 2.2 2.9 2.9 1.1z"/><path d="m80.7 58.3c1.3 1.5 3.6-.4 2.4-1.9l-9.7-11.9c-1.3-1.6-3.7.4-2.4 1.9z"/><path d="m198.9 101.2.7-99.9c-.1-2-3.1-2-3.1 0l-.7 99.9h1.2z"/><path d="m258.4 271.3c-.8.7-1.6 1.3-2.4 1.9l41.9 51.1c1.3 1.5 3.6-.4 2.4-1.9z"/><path d="m193.8 392.9c0 2 3.1 2 3.1 0l.7-99.5c-.2 0-.4 0-.6 0-.8 0-1.7 0-2.5 0z"/><path d="m366.4 294.8-85.7-50.2c-.5.9-1 1.8-1.6 2.7l85.7 50.2c1.7.9 3.3-1.7 1.6-2.7z"/><path d="m28.5 96.7c-1.7-1-3.3 1.6-1.6 2.6l86.4 50.7c.5-.9 1-1.8 1.5-2.6z"/><path d="m95.4 71.3c-1.3-1.5-3.6.4-2.4 1.9l41.7 50.9c.8-.7 1.6-1.3 2.4-2z"/><path d="m141.2 340.3c-.7 1.8 2.2 2.9 2.9 1.1l20.2-53.7c-.1 0-.1 0-.2-.1-.9-.3-1.8-.7-2.8-1.1z"/><path d="m252.2 54c.7-1.9-2.2-3-2.9-1.2l-20.2 53.9c1 .3 1.9.7 2.9 1.1z"/><path d="m291.9 182.2c0 .2.1.4.1.6l56.4-9.3c2-.3 1.5-3.3-.5-3l-56.4 9.3c0 .2.1.5.1.7.1.6.2 1.1.3 1.7z"/><path d="m44.9 220.6c-1.9.3-1.5 3.4.5 3l57-9.4c-.2-1-.3-2-.5-3z"/><path d="m25.7 292.6c-1.7 1-.2 3.6 1.5 2.7l86.9-49.4c-.5-.9-1.1-1.8-1.6-2.8z"/><path d="m367.7 101.8c1.7-1.1.2-3.8-1.5-2.8l-86.5 49.3c.5.9 1 1.8 1.5 2.7z"/></g></svg>
