<svg enable-background="new 0 0 395 395" viewBox="0 0 395 395" xmlns="http://www.w3.org/2000/svg"><g fill="#bb9845"><path d="m223.3 36.5-11.3 65.6c-.3 1.9 2.7 2.5 3 .5l11.3-65.6c.4-1.9-2.7-2.5-3-.5z"/><path d="m71 93.8 51.1 42.6c1.5 1.3 3.5-1.1 2-2.4l-51.1-42.6c-1.6-1.3-3.5 1.1-2 2.4z"/><path d="m42.5 256 62.4-23c1.9-.7.8-3.6-1.1-2.9l-62.4 23c-1.9.7-.8 3.6 1.1 2.9z"/><path d="m171 358.5 11.3-65.6c.3-1.9-2.7-2.5-3-.5l-11.3 65.6c-.3 1.9 2.7 2.4 3 .5z"/><path d="m325.6 303.9-51.1-42.6c-1.5-1.3-3.5 1.1-2 2.4l51.1 42.6c1.6 1.2 3.6-1.1 2-2.4z"/><path d="m351.3 138-62.4 23c-1.9.7-.8 3.6 1.1 2.9l62.4-23c1.8-.8.7-3.6-1.1-2.9z"/><path d="m19.7 133.3 14.4 5.3c1.9.7 2.9-2.2 1.1-2.9l-14.4-5.3c-1.9-.7-2.9 2.2-1.1 2.9z"/><path d="m53.2 318.7 11.8-9.8c1.5-1.3-.4-3.6-2-2.4l-11.8 9.8c-1.5 1.3.5 3.6 2 2.4z"/><path d="m231.1 391.4-2.6-15.1c-.3-1.9-3.4-1.4-3 .5l2.6 15.1c.3 2 3.4 1.5 3-.5z"/><path d="m374.3 260.7-14.4-5.3c-1.9-.7-2.9 2.2-1.1 2.9l14.4 5.3c1.9.7 2.9-2.2 1.1-2.9z"/><path d="m340.8 75.3-11.8 9.9c-1.5 1.3.4 3.6 2 2.4l11.8-9.8c1.5-1.4-.5-3.7-2-2.5z"/><path d="m162.2 3.9 2.6 15.1c.3 1.9 3.4 1.4 3-.5l-2.6-15.1c-.3-2-3.4-1.5-3 .5z"/><path d="m293.6 26.7-50.1 86.8 2.7 1.5 50.1-86.7c.9-1.8-1.7-3.4-2.7-1.6z"/><path d="m214 292c-1 .2-2 .3-3 .5l11.2 65.1c.3 1.9 3.4 1.4 3-.5z"/><path d="m147.5 279.6-49.8 86.2c-1 1.7 1.7 3.2 2.7 1.5l49.8-86.2c-.9-.4-1.8-.9-2.7-1.5z"/><path d="m296.2 365.8-49.7-86c-.9.5-1.8 1-2.7 1.5l49.7 86c1.1 1.8 3.7.2 2.7-1.5z"/><path d="m150.6 113.6-50.2-86.9c-1-1.7-3.6-.2-2.7 1.5l50.2 86.9c.9-.5 1.8-1 2.7-1.5z"/><path d="m179.3 103.2c1-.2 2-.4 3-.5l-11.2-65c-.3-1.9-3.4-1.4-3 .5z"/><path d="m122.1 257.3-44.1 36.7c-1.5 1.3.4 3.6 2 2.4l44.1-36.7c-.7-.8-1.3-1.6-2-2.4z"/><path d="m314 97.6-44.4 36.9c.7.8 1.3 1.6 2 2.4l44.4-36.9c1.5-1.3-.4-3.7-2-2.4z"/><path d="m341.6 248.7-53.7-19.8c-.3 1-.7 1.9-1.1 2.9l53.7 19.8c1.9.6 3-2.3 1.1-2.9z"/><path d="m107.8 162.5-54.4-20c-1.9-.7-2.9 2.2-1.1 2.9l54.3 20c.5-1 .8-2 1.2-2.9z"/><path d="m101.2 197.5c0-.7 0-1.4 0-2h-100c-2 0-2 3.1 0 3.1h100.1c-.1-.4-.1-.8-.1-1.1z"/><path d="m392.8 195.5h-99.7v2 1h99.7c2 0 2-3 0-3z"/><path d="m139.9 44.2 22.6 62.6c.7 1.9 3.6.8 2.9-1l-22.6-62.6c-.6-1.9-3.5-.9-2.9 1z"/><path d="m36.5 170.6 65.5 11.7c1.9.3 2.5-2.7.5-3l-65.5-11.7c-1.9-.4-2.4 2.6-.5 3z"/><path d="m91.9 324.5 42.9-50.9c1.3-1.5-1.1-3.5-2.3-2l-42.9 50.9c-1.3 1.5 1 3.5 2.3 2z"/><path d="m255.2 352.6-22.6-62.6c-.7-1.9-3.6-.8-2.9 1l22.6 62.6c.7 1.9 3.6.9 2.9-1z"/><path d="m359.1 224.6-65.5-11.7c-1.9-.3-2.5 2.7-.5 3l65.5 11.7c1.9.4 2.5-2.6.5-3z"/><path d="m302.8 70.1-42.9 50.9c-1.3 1.5 1.1 3.5 2.3 2l42.9-50.9c1.3-1.6-1-3.5-2.3-2z"/><path d="m11.1 229.3 15.1-2.5c1.9-.3 1.5-3.4-.5-3l-15.1 2.5c-1.9.3-1.4 3.3.5 3z"/><path d="m131.8 373.9 5.4-14.4c.7-1.8-2.2-2.9-2.9-1.1l-5.4 14.4c-.7 1.9 2.2 3 2.9 1.1z"/><path d="m322.4 349.2-9.7-11.9c-1.3-1.5-3.6.4-2.4 1.9l9.7 11.9c1.3 1.6 3.7-.4 2.4-1.9z"/><path d="m382.3 164.9-15.1 2.5c-1.9.3-1.5 3.4.5 3l15.1-2.5c1.9-.3 1.4-3.4-.5-3z"/><path d="m261.6 20.3-5.4 14.4c-.7 1.8 2.2 2.9 2.9 1.1l5.4-14.4c.6-1.9-2.2-3-2.9-1.1z"/><path d="m71 46.4 9.7 11.9c1.3 1.5 3.6-.4 2.4-1.9l-9.7-11.9c-1.3-1.6-3.7.4-2.4 1.9z"/><path d="m196.5 1.3-.7 100.2h3.1l.7-100.2c-.1-2-3.1-2-3.1 0z"/><path d="m258.4 271.3c-.8.7-1.6 1.3-2.4 1.9l41.9 51.1c1.3 1.5 3.6-.4 2.4-1.9z"/><path d="m194.5 293.4-.7 99.5c0 2 3.1 2 3.1 0l.7-99.5c-1 0-2.1 0-3.1 0z"/><path d="m366.4 294.8-85.7-50.2c-.5.9-1 1.8-1.6 2.7l85.7 50.2c1.7.9 3.3-1.7 1.6-2.7z"/><path d="m115.1 147.5-86.6-50.8c-1.7-1-3.3 1.6-1.6 2.6l86.6 50.8c.6-.9 1.1-1.7 1.6-2.6z"/><path d="m134.9 124.3c.8-.7 1.6-1.3 2.4-2l-41.9-51c-1.3-1.5-3.6.4-2.4 1.9z"/><path d="m161.4 286.5-20.2 53.8c-.7 1.8 2.2 2.9 2.9 1.1l20.2-53.7c-1-.4-1.9-.8-2.9-1.2z"/><path d="m249.3 52.8-20.3 54.1c1 .3 1.9.7 2.9 1.1l20.3-54c.7-1.9-2.2-3-2.9-1.2z"/><path d="m347.9 170.5-56.4 9.3c.2 1 .4 2 .5 3l56.4-9.3c2-.3 1.5-3.3-.5-3z"/><path d="m102.1 211.2-57.2 9.4c-1.9.3-1.5 3.4.5 3l57.1-9.4c-.1-1-.3-2-.4-3z"/><path d="m113.7 244.9c-.3-.6-.7-1.2-1-1.8l-87 49.5c-1.7 1-.2 3.6 1.5 2.7l87-49.4c-.2-.5-.4-.7-.5-1z"/><path d="m366.2 99-86.6 49.3c.3.6.7 1.2 1 1.8.2.3.3.6.5.9l86.6-49.2c1.7-1.1.2-3.8-1.5-2.8z"/></g></svg>