<svg class="logo__rays" role="img" aria-hidden="true" aria-labelledby="logo-rays" viewBox="0 0 395 395" xmlns="http://www.w3.org/2000/svg"><title id="logo-rays">Fábio M.R. Barbosa's Logo - Decorative</title><g fill="none" stroke="#aa7d47" stroke-miterlimit="10" stroke-width="3"><path d="m164.3 2.2 3 18"/><path d="m181.2 101.8-11.5-66.5"/><path d="m164.3 106.3-23.3-63.3"/><path d="m99.5 26.1 50.4 87.7"/><path d="m72 44.5 11.5 14.1"/><path d="m92.9 70.7 43.3 52.2"/><path d="m71.8 91.7 52 43.5"/><path d="m27.4 97.5 87.4 51.2"/><path d="m12.2 128.4 17.1 6.5"/><path d="m43.9 139.6 63.2 23.7"/><path d="m36 168.2 66.5 11.9"/><path d="m101.6 197.2h-101.2"/><path d="m2.8 231.6 18-3"/><path d="m103 213.6-67.2 11.6"/><path d="m107.5 230.4-64 23.5"/><path d="m27.4 296.9 87.4-51.2"/><path d="m46.6 325.2 13.9-11.7"/><path d="m72.1 303.1 51.6-43.5"/><path d="m93.3 324 42.9-52.1"/><path d="m149.9 280.6-50.4 87.7"/><path d="m130 383.4 6.4-17"/><path d="m164.7 287.7-23.3 63.8"/><path d="m181.5 292.2-11.3 66.9"/><path d="m197.7 394.5v-101.2"/><path d="m228.4 374.6 3 17.9"/><path d="m225.7 359.1-11.7-67.4"/><path d="m254.4 351.4-23.6-64.1"/><path d="m245.5 280.6 50.4 87.7"/><path d="m312.2 336.1 11.5 14.2"/><path d="m258.7 270.8 43.8 52.9"/><path d="m271 258.6 52.6 44.1"/><path d="m280.6 245.7 87.4 51.2"/><path d="m366.4 259.9 17.1 6.4"/><path d="m287.5 230.9 64 23.9"/><path d="m292.1 214.1 67.3 12.1"/><path d="m395 197.2h-101.2"/><path d="m374.9 166.2 18-3.1"/><path d="m359.6 169.2-67.9 11.8"/><path d="m351.9 140.5-64.7 23.8"/><path d="m280.6 148.7 87.4-51.2"/><path d="m335.1 81.3 14-11.7"/><path d="m271.1 135.3 52.2-44"/><path d="m258.7 123.1 43.4-52.7"/><path d="m295.9 26.1-50.4 87.7"/><path d="m259.3 28.4 6.4-17.1"/><path d="m254 42.9-23.5 64.2"/><path d="m225.2 35.3-11.4 67.4"/><path d="m197.7 101.1v-101.2"/></g></svg>
