<svg viewBox="0 0 397.31 845.03" xmlns="http://www.w3.org/2000/svg"><g fill="none" stroke="#2a2834" stroke-linejoin="round" stroke-width="2"><g><circle cx="111.27" cy="298.55" r="86.7"/><circle cx="285.56" cy="298.55" r="86.7"/><circle cx="198.86" cy="447.96" r="86.7"/><circle cx="198.86" cy="534.74" r="86.7"/><circle cx="198.86" cy="621.45" r="86.7"/><circle cx="198.86" cy="708.15" r="86.7"/><circle cx="123.68" cy="491.43" r="86.7"/><circle cx="274.04" cy="577.98" r="86.7"/><circle cx="274.04" cy="491.43" r="86.7"/><circle cx="123.68" cy="577.98" r="86.7"/><circle cx="198.37" cy="148.28" r="86.7"/><path d="m198.57 41.15-179.36 311.23h358.73z"/><path d="m198.57 657.61 179.37-305.23h-358.73z"/><path d="m198.57 794.86 179.37-304.1h-358.73z"/><path d="m198.57 400.88-179.36 314.23h358.73z"/><path d="m198.57 41.28v360.31"/></g><path d="m377.94 352.38h-358.73s77.73 49.21 179.36 49.21c97.37 0 179.37-49.21 179.37-49.21z"/><path d="m65.94 172.15 312 180.23"/><path d="m331.21 172.15-312 180.23"/><path d="m19.29 715v-362.74s-6.13-88.97 46.71-180.26c47.17-81.38 132.65-130.85 132.65-130.85s87.75 49.57 132.64 130.85c50.39 91.29 46.71 180.26 46.71 180.26v362.74z" stroke="#444153" stroke-linejoin="miter" stroke-width="8"/></g></svg>
