<svg role="img" aria-labelledby="site-logo" xmlns="http://www.w3.org/2000/svg" viewBox="0 0 561 416"><title id="site-logo">Fábio M.R. Barbosa's Logo</title></title><g><path d="M427.2,1.1a168,168,0,0,0-65.75,5.46A158.69,158.69,0,0,0,305.79,35.4,143.88,143.88,0,0,0,267.21,83c-5.07,10.22-9.6,20.09-12.77,31q-4.91,17-8.2,34.35c-2.24,11.62-2.89,24.44-4.15,36.21s-1.83,23.56-2.27,35.41-2.25,24.76-3.31,36.72c-1,11.71-2.54,23.39-4.4,35a157.13,157.13,0,0,1-8.17,31.81c-3.56,9.22-6.83,17.27-12.48,25.38C200,365.3,184.12,378.8,165.05,385.35A74.91,74.91,0,0,1,107.74,382a82.11,82.11,0,0,1-13.19-8.07L73,395.48A159,159,0,0,0,112.31,411a167.67,167.67,0,0,0,91.13-3.19,158.93,158.93,0,0,0,39.5-19,155.34,155.34,0,0,0,32-28.48,144.06,144.06,0,0,0,22.78-37.19c6-14.23,10.06-29.23,13.27-44.31,1.66-7.8,3.09-15.65,4.36-23.52.33-2,1.28-8.77,1.28-8.77s8.45,1,12.28,1.12a137.39,137.39,0,0,0,45.85-6,134.14,134.14,0,0,0,38.72-19.26,131.68,131.68,0,0,0,29.42-29.25,47.33,47.33,0,0,0-28.59-7.26,46.74,46.74,0,0,0-24.8,9.22c-3.7,2.81-6.82,6.31-10.26,9.43a109.3,109.3,0,0,1-11.17,8.85,103.59,103.59,0,0,1-49.49,18.16q1-8.91,1.6-17.85c.84-12.13,1.11-24.3,1.58-36.45.32-8.1.93-16.19,1.77-24.26q2.19-21.18,6.42-42.09a109.38,109.38,0,0,1,5.46-19.64,125,125,0,0,1,9.05-17.89c10.7-17.72,26.2-32.81,45.43-40.93a75.17,75.17,0,0,1,58-.57A81.75,81.75,0,0,1,465.7,42l21.61-21.62A161.34,161.34,0,0,0,427.2,1.1Z"></path><path d="M558.93,122A132.43,132.43,0,0,0,535.06,62.6a143.13,143.13,0,0,0-22.8-24.75L486.5,63.6Q489,67.2,491.26,71c10.79,18.4,16.23,39.72,16.85,61a136,136,0,0,1-13.76,64.32A132.87,132.87,0,0,1,331.56,262c1.33,1.17,2.6,2.4,3.85,3.66a77.52,77.52,0,0,1,19.14,32.09,75.77,75.77,0,0,1,.61,40.93,77.18,77.18,0,0,1-18.7,33.22,81.59,81.59,0,0,1-32.14,20.67,84.35,84.35,0,0,1-41.24,3.54c1.76.84,3.56,1.61,5.37,2.33a89.51,89.51,0,0,0,46.08,5,86.55,86.55,0,0,0,40.15-17.19,76.6,76.6,0,0,0,24.78-33.51,70.05,70.05,0,0,0,1.1-44.91,74.28,74.28,0,0,0-23.14-34.17,163.52,163.52,0,0,0,30.35,6.15,168.81,168.81,0,0,0,54.89-3.19,161.64,161.64,0,0,0,48-19.29A153.42,153.42,0,0,0,516,238.09a141.06,141.06,0,0,0,34.88-50.76A130.51,130.51,0,0,0,558.93,122Z"></path><path d="M48.81,378.78l25.56-25.55a106.76,106.76,0,0,1-7.48-11.92C56.89,322.8,52.1,301.68,52,280.7a135.43,135.43,0,0,1,14.86-63.28,132.9,132.9,0,0,1,161.73-63.64c-1.34-1.19-2.64-2.43-3.9-3.7a77.34,77.34,0,0,1-19.23-32.53A75.82,75.82,0,0,1,205.23,76a77.16,77.16,0,0,1,19-32.77A81.68,81.68,0,0,1,256.12,23.1,84.21,84.21,0,0,1,297,19.68q-2.7-1.29-5.48-2.38a89.51,89.51,0,0,0-45.91-5,86.51,86.51,0,0,0-40.23,17.21A76.83,76.83,0,0,0,180.66,63a70,70,0,0,0-1.12,45,74.27,74.27,0,0,0,23.15,34.18,161.61,161.61,0,0,0-21.93-5,168.4,168.4,0,0,0-47.61-.69,164.54,164.54,0,0,0-43.62,11.78A157,157,0,0,0,52,170.76a147.12,147.12,0,0,0-29,31.59A135,135,0,0,0,4.61,242.12a129.74,129.74,0,0,0,7.87,89.81,138.29,138.29,0,0,0,24.45,35.65A146.1,146.1,0,0,0,48.81,378.78Z"></path></g></svg>
