<svg enable-background="new 0 0 395 395" viewBox="0 0 395 395" xmlns="http://www.w3.org/2000/svg"><g><path d="m268.9 12.8c-.3.8-.4 1.4-.6 1.9-13.4 35.4-26.8 70.8-40.3 106.2-1.6 4.3-3.2 8.6-4.8 12.9-.3.9-.5 1.9-1.8 1.4s-.7-1.5-.4-2.3c15-39.6 30-79.2 45.1-118.9.2-.6.4-1.1.7-1.6.3-.4.9-.8 1.3-.7s.5.8.8 1.1z"/><path d="m171.1 257.8c-.3.7-.5 1.2-.7 1.6l-42.3 91.8c-3.5 7.5-6.9 15-10.4 22.5-.2.5-.4 1.2-.8 1.6s-1 .6-1.5.9c-.2-.6-.7-1.3-.5-1.8.6-1.7 1.3-3.3 2.1-4.9 16.7-36.2 33.4-72.4 50.1-108.6.5-1.1.8-2.2 1.4-3.2.2-.4 1-.6 1.6-.7.4 0 .7.5 1 .8z"/><path d="m238.4 144.5c-.4-.3-1.1-.5-1.2-.8-.1-.6 0-1.2.4-1.8 2.4-3.3 4.9-6.6 7.3-9.8l66.6-89.1c.6-.9 1.3-1.8 2-2.7.6-.7 1.1-2.2 2.4-1.1.3.3 0 1.8-.5 2.5-3.5 4.9-7.1 9.6-10.7 14.4-21.2 28.4-42.4 56.8-63.7 85.2-.6.7-1 1.5-1.6 2.3-.3.3-.6.6-1 .9z"/><path d="m215.2 3.1c-.6 7.3-1.3 14.6-1.9 21.8-.5 5.3-.8 10.6-1.3 15.9-.5 5.8-1 11.5-1.5 17.3-.4 5.2-.9 10.5-1.3 15.7-.5 5.9-1 11.8-1.5 17.7-.4 5.2-.8 10.5-1.3 15.7-.5 5.9-1 11.8-1.5 17.7-.1 1.6-.1 3.2-.3 4.7-.1.5-.8 1-1.3 1.4-.3-.6-1-1.2-1-1.8.8-9.9 1.7-19.8 2.5-29.7.6-7.1 1-14.3 1.6-21.5.7-8.7 1.6-17.4 2.3-26.1.6-7.1 1.1-14.2 1.7-21.3s1.3-14.3 1.9-21.4c.2-2.1.2-4.2.5-6.3.1-.9.7-1.8 1-2.7l1.7 2.4z"/><path d="m382.7 126c-.9.5-1.8 1-2.7 1.5-7.3 2.8-14.5 5.7-21.8 8.5l-96.2 37.5c-.2.1-.4.2-.5.2-.7-.2-1.3-.5-2-.7.4-.5.6-1.2 1.1-1.4 5.7-2.3 11.5-4.5 17.2-6.7 33.5-13 67-26.1 100.5-39.1.7-.3 1.5-.7 2.2-.7.5-.2 1.1.4 2.2.9z"/><path d="m249.9 156.3c.8-.7 1.4-1.4 2.1-1.9 16.8-12.8 33.6-25.5 50.3-38.3 16.3-12.4 32.6-24.8 48.9-37.2.5-.4 1-.9 1.6-1.1s1.4-.1 2.1-.1c-.2.7-.3 1.6-.8 1.9-3.2 2.6-6.6 5.1-9.9 7.6l-70.4 53.6c-6.6 5-13.2 10-19.8 15.1-1.1.8-2.2 1.6-4.1.4z"/><path d="m195.4 394.6c-.4-.7-1-1.4-1-2.1 0-6.9.2-13.8.3-20.8.1-5.2 0-10.3.1-15.5.1-11.9.2-23.9.4-35.8.2-12.5.3-25.1.5-37.6.1-5.9.2-11.7.2-17.6 0-.1 0-.1 0-.2.4-.7.8-1.4 1.2-2.1.4.7 1 1.3 1.1 2 .1 2.5.1 5 0 7.5-.1 8.3-.3 16.6-.4 24.9-.2 14.3-.4 28.6-.5 42.9-.1 10-.3 19.9-.4 29.9-.1 7.3-.2 14.5-.3 21.8-.1.8-.2 1.5-.3 2.3z"/><path d="m155.5 247.8c-.5.6-.8 1.1-1.2 1.6-5.3 6.2-10.7 12.4-16 18.6-12 14-24.1 28-36.1 42-10.1 11.7-20.2 23.5-30.4 35.2-.3.3-.6.8-1 1-.6.1-1.3.2-1.9.2.1-.6 0-1.3.3-1.7 3.8-4.5 7.6-8.9 11.4-13.4 11.1-12.9 22.3-25.9 33.5-38.8l35.9-41.6c1-1.1 1.9-2.3 3-3.4.4-.3.9-.5 1.4-.5.4-.1.8.4 1.1.8z"/><path d="m188.8 263.8c-.8 5.2-1.5 10.1-2.3 14.9-1 6.5-2 12.9-3 19.4-1.1 7.3-2.2 14.5-3.4 21.8-1.1 7.3-2.3 14.7-3.4 22-1.3 8.2-2.5 16.3-3.8 24.5-1.1 7.3-2.2 14.5-3.3 21.8-.1.8-.2 1.6-.4 2.3-.2.6-.7 1-1.1 1.6-.4-.7-1.1-1.4-1-2 .3-2.7.8-5.3 1.2-8 1.1-7.4 2.3-14.8 3.4-22.2 1.2-8 2.5-16.1 3.7-24.1 1.3-8.2 2.5-16.3 3.8-24.5 1.3-8.3 2.6-16.6 3.9-24.9 1.1-7.3 2.2-14.7 3.3-22 .1-.7.4-1.4.7-2 .1-.1.9-.1 1.1.1.2.4.4.8.6 1.3z"/><path d="m143.2 234c-.5.5-1.1 1-1.7 1.4-9.5 6.3-19 12.5-28.6 18.7l-76.8 50.3c-.3.2-.5.5-.8.5-.8.1-1.6.1-2.5.1.4-.6.7-1.5 1.2-1.9 9.4-6.3 18.9-12.5 28.4-18.7 25.8-16.9 51.7-33.8 77.5-50.8.7-.5 1.6-.6 2.5-.8.2.1.5.7.8 1.2z"/><path d="m9.3 254.6c1.3-.5 2.7-1 4-1.4 39.7-12.3 79.4-24.6 119-37 1.3-.4 2.3-.6 3 1.2-.7.3-1.4.6-2.1.8-36.6 11.4-73.1 22.8-109.7 34.1-4 1.3-8 2.5-12 3.6-.7.2-1.5-.2-2.2-.3z"/><path d="m250.6 387.2c-2 .4-2.1-.9-2.4-1.9-2.1-7.8-4.2-15.6-6.4-23.3-9-33.1-18-66.1-27-99.2-.2-.6 0-1.9.3-2 1.3-.4 1.5.7 1.8 1.7 5.4 19.7 10.8 39.4 16.2 59.1 5.7 20.8 11.4 41.7 17 62.5.2 1.1.3 2 .5 3.1z"/><path d="m232.9 253.2c.5.5.9 1.1 1.3 1.7 5 8.3 10.1 16.5 15.1 24.8 16.8 27.6 33.5 55.2 50.3 82.8.2.3.4.5.5.9.2.8.2 1.6.3 2.4-.7-.5-1.6-.8-2-1.4-4.6-7.4-9.1-14.9-13.7-22.4l-45-74.2c-2.5-4.1-5-8.2-7.5-12.3-.6-.9-1.1-1.8.7-2.3z"/><path d="m141.8 162.5c-.5.7-.7 1.2-.9 1.2-.5 0-1.1-.1-1.6-.3-4.2-2.5-8.4-5-12.6-7.5l-96-57.2c-.6-.3-1.2-.6-1.7-1.1-.4-.4-.5-1-.7-1.5.6-.1 1.2-.1 1.7-.1.3 0 .6.3.8.5l106.3 63.3c1 .6 2.1 1.2 3.1 1.8.6.2 1.1.6 1.6.9z"/><path d="m374.5 285.3c-.9 1.6-1.9.9-2.8.4l-33.5-16.9c-26.4-13.3-52.8-26.6-79.2-39.9-.9-.5-1.8-1-2.7-1.6.8-1.6 1.7-1.1 2.7-.6 13.8 6.9 27.6 13.9 41.4 20.8 16.2 8.2 32.4 16.3 48.6 24.5 7.7 3.9 15.5 7.8 23.2 11.7.9.6 1.6 1 2.3 1.6z"/><path d="m184.9 132.7c-.4-.8-1.1-1.5-1.3-2.3-3.3-16.3-6.6-32.6-9.8-49s-6.5-32.6-9.7-49c-.3-1.6-.8-3.2-1-4.8-.1-.9.3-1.8.4-2.7.6.7 1.4 1.3 1.6 2.1.8 3.4 1.4 6.8 2.1 10.2 2.3 11.7 4.6 23.4 6.9 35.1 2.6 13 5.2 26 7.7 39 1.2 6.2 2.5 12.3 3.7 18.5.1.8.2 1.7.2 2.6z"/><path d="m195.8 135.5c-.4.9-.9 2.5-1.1 2.4-1.6-.2-1-1.7-1.1-2.7-.5-8.2-1-16.4-1.4-24.6-.3-6.1-.6-12.2-1-18.4-.4-7.8-1-15.6-1.4-23.5-.3-5.8-.6-11.6-1-17.4-.5-8.2-1-16.3-1.4-24.5-.1-1.6-.1-3.2-.1-4.8 0-.3.4-.7.6-1 .4.2.7.5 1 .8.2.3.3.7.3 1.1.4 8 .8 15.9 1.2 23.9.4 7.8 1 15.6 1.4 23.5.3 5.8.6 11.6.9 17.4.5 8.1 1 16.3 1.4 24.4.3 5.9.6 11.7 1 17.6.1 1.8.2 3.7.4 5.5z"/><path d="m139.1 30.9c1.9-.5 2.1.8 2.4 1.7 2.8 8 5.6 16 8.4 24 9.6 27.5 19.2 54.9 28.8 82.4.1.2.2.5.2.8-.1.5-.2 1-.3 1.5-.4-.3-1.1-.5-1.3-.9-1.1-2.8-2.1-5.7-3.1-8.5-11.5-32.9-23-65.9-34.5-98.8-.2-.7-.4-1.4-.6-2.2z"/><path d="m262.1 199.3c9.4.5 19.3 1.1 29.2 1.6 6 .3 12 .5 18 .8 10.5.5 21 1.1 31.6 1.6 7.6.4 15.3.6 22.9 1 2.8.1 5.7.2 8.5.5.5 0 1 .6 1.5.9-.5.2-1 .7-1.5.7-8.7-.4-17.3-.8-26-1.3-8.2-.4-16.4-.8-24.7-1.2l-24.9-1.2-21.5-1c-5.6-.3-11.2-.5-16.8-.8-.5 0-1-.6-1.5-.9.5-.2 1-.4 1.5-.5 1.1-.3 2.1-.2 3.7-.2z"/><path d="m95.7 53.5c1.6-1 2 .3 2.6 1.1 4.1 5.8 8.2 11.6 12.3 17.4 17.5 24.8 35 49.6 52.6 74.4.4.7.8 1.5 1.2 2.2l-.7.5c-.7-.6-1.3-1.2-1.8-1.9-7.5-10.6-15-21.2-22.5-31.8-14.2-19.9-28.3-39.8-42.4-59.7-.5-.7-.9-1.5-1.3-2.2z"/><path d="m22.9 176c.4-.1.7-.4 1.1-.3 38.2 4.5 76.4 9.1 114.7 13.7.3 0 .6.4 1.3.9-1 .2-1.5.6-2 .5-11.5-1.4-23.1-2.8-34.6-4.2-9.5-1.1-18.9-2.1-28.4-3.2-8.3-1-16.7-2.1-25-3.1-7.2-.9-14.5-1.6-21.7-2.5-1.8-.2-3.6-.6-5.3-.9z"/><path d="m315.7 187.3c-.9 0-1.5.1-1.9 0-.5-.3-1-.6-1.5-1 .4-.3.8-.8 1.3-.9 3.9-.5 7.8-.8 11.8-1.2 6.6-.6 13.2-1.3 19.8-1.9 4.8-.4 9.7-.9 14.5-1.3 6.6-.6 13.2-1.2 19.8-1.8 4.3-.4 8.6-.8 13-1.1.6 0 1.2.7 1.8 1.1-.5.3-1 .9-1.6 1-11 1.1-22 2.2-33 3.2-7.9.7-15.8 1.3-23.8 2-6.8.6-13.7 1.3-20.2 1.9z"/><path d="m349.9 226.9c-7.5-1.4-14.6-2.7-21.6-4.1-11.5-2.2-22.9-4.4-34.3-6.5-9.9-1.9-19.8-3.7-29.7-5.6-.6-.1-1-.9-1.5-1.4.7-.2 1.4-.8 2-.7 17.7 3.3 35.4 6.7 53.1 10.2 10.4 2 20.8 4 31.3 5.9.3 0 .6.1.9.3.4.4.7.8 1 1.2z"/><path d="m309.4 333.8c-.6-.4-1.3-.7-1.7-1.3-6.1-7.4-12.1-14.8-18.2-22.2-11.6-14.2-23.2-28.4-34.8-42.6-6-7.4-12.1-14.8-18.2-22.1-.1-.1-.3-.3-.4-.5-.3-.8-.5-1.6-.8-2.3.7.4 1.5.7 2 1.3 11.2 13.6 22.3 27.2 33.4 40.9 12.6 15.4 25.1 30.7 37.7 46.1.5.6 1 1.3 1.5 2z"/><path d="m364.9 254.1c-.7 0-1.3-.1-2-.2-13.5-4.6-27.1-9.2-40.6-13.8-16.2-5.5-32.4-11-48.6-16.5-3-1-6.1-1.9-9.2-2.8-.2-.1-.6-.1-.7-.2-.7-.6-1.3-1.2-1.9-1.8.9 0 1.9-.4 2.6-.1 32.9 11.2 65.9 22.5 98.8 33.8l1.8.9c-.1.1-.2.4-.2.7z"/><path d="m165.3 246.4c1.8.8 1 1.7.4 2.5-4.1 6.3-8.1 12.6-12.2 18.9-11 17.1-22 34.2-33 51.3-.4.7-.8 1.3-1.3 2-.3.3-.9.2-1.3.4-.1-.5-.2-.9-.1-1.4.1-.4.3-.7.6-1 15.1-23.5 30.2-46.9 45.4-70.4.3-.8.9-1.5 1.5-2.3z"/><path d="m322.7 72.3c-.7.9-1.1 1.3-1.5 1.7-9.1 9.1-18.1 18.2-27.2 27.4-10.4 10.5-20.9 21.1-31.3 31.6-.5.5-1.4.5-2.1.8.3-.7.3-1.6.8-2.1 10.2-10.4 20.6-20.7 30.8-31 9.1-9.1 18.1-18.3 27.1-27.4.5-.5.9-1 1.5-1.3.4-.2 1 .1 1.9.3z"/><path d="m69.8 200.9c-12.7.2-25.4.4-38.1.7-5.4.1-10.8.2-16.2.4-4 .1-7.9.3-11.8.4-.5 0-1.1.1-1.6-.1s-1-.7-1.4-1.1c.5-.3 1-.9 1.5-1 2.9-.2 5.8-.2 8.7-.2 8.2-.1 16.3-.2 24.5-.4 11.9-.2 23.7-.5 35.6-.8.5-.1 1.1-.1 1.6.1.4.2.7.5.7 1-.1.4-.4.7-.8.8-.9.1-1.7.1-2.6 0z"/><path d="m167.4 138.8c-.5-.6-1.2-1.2-1.6-1.9-5.7-11.1-11.5-22.2-17.2-33.3-4.6-8.9-9.2-17.7-13.7-26.6-.4-.8-.3-1.9-.5-2.8.8.6 1.9 1.1 2.3 1.9 7.5 14.5 15 29 22.4 43.6 2.7 5.3 5.5 10.6 8.2 15.9.4.8.5 1.8.7 2.6z"/><path d="m341.8 328.9c-.2.5-.4 1-.5 1-.5 0-1-.1-1.4-.4-1.4-1.1-2.7-2.4-4-3.6l-45.4-42c-1-.9-2-1.7-2.9-2.7-.3-.4-.3-1-.4-1.6.6.1 1.3-.1 1.7.2 2.7 2.4 5.4 4.9 8 7.3 14.3 13.2 28.6 26.4 42.9 39.6.7.7 1.3 1.5 2 2.2z"/><path d="m286.3 148.6c-.3-.2-.8-.4-.8-.7 0-.4.1-.8.4-1.1 1-.7 2.2-1.2 3.2-1.9 19.8-11.1 39.7-22.2 59.5-33.3.9-.5 1.8-1.8 3.1-.6-.7.7-1.3 1.6-2.1 2.1-20.5 11.6-41 23.1-61.5 34.6-.5.3-1.1.5-1.8.9z"/><path d="m102.1 211.8 1.3.7c-.5.3-.9.8-1.4.9-13.9 2.3-27.8 4.5-41.7 6.8-11.4 1.8-22.8 3.7-34.1 5.6-.3 0-.6.2-.8.1-.5-.2-1-.5-1.4-.8.4-.3.7-.8 1.1-.9 2.6-.5 5.3-.8 8-1.3 9.4-1.5 18.7-3.1 28.1-4.6 8.6-1.4 17.2-2.7 25.8-4.1 4.3-.7 8.7-1.5 13-2.2.6 0 1.1 0 2.1-.2z"/><path d="m133.1 181.1c-.6-.2-1-.2-1.4-.3-19.3-5.1-38.6-10.2-57.9-15.3-.9-.2-2.5-1.4-2.4-1.7.5-1.6 1.9-.7 2.8-.4 19.2 5.1 38.5 10.1 57.7 15.3.5.1.9.2 1.3.4.4.4.8.8 1.1 1.2z"/><path d="m226.3 145.4c0-.6-.3-1.3-.1-1.8.7-1.6 1.7-3.1 2.5-4.7 9.4-17 18.7-34.1 28.1-51.1.4-.7 1.3-1.2 1.9-1.7-.1.9.1 1.9-.3 2.6-10 18.3-20 36.7-30.1 54.9-.4.6-.8 1.3-1.3 1.9z"/><path d="m267.2 359.1c-.5-.7-1.1-1.2-1.4-2-5.8-13.3-11.5-26.6-17.2-40-3.6-8.3-7.1-16.5-10.6-24.8-.3-.8-.4-1.7-.6-2.6l.7-.3c.5.6.9 1.2 1.2 1.8 9.4 21.8 18.8 43.7 28.2 65.5.2.6.4 1.2.5 1.8z"/><path d="m323.4 168c-.7.3-1.4.8-2.2 1-15.2 3.6-30.3 7.1-45.5 10.6-6.1 1.4-12.2 2.9-18.4 4.3-.6.1-1.4-.2-2.1-.3 0-.3 0-.7 0-1 22.3-5.2 44.5-10.4 66.8-15.6.4-.1.9.3 1.3.5 0 .2.1.4.1.5z"/><path d="m219.2 371.5c-.4-3-.8-6-1.2-9-.8-5.8-1.5-11.6-2.2-17.4-.7-5.7-1.4-11.3-2.1-17s-1.5-11.5-2.2-17.2c-.1-.8-.2-1.6-.1-2.4 0-.4.4-.7.6-1.1.3.3.9.5 1 .8.3 1.3.5 2.6.7 3.9 1 7.8 1.9 15.6 2.9 23.4 1.1 8.8 2.3 17.6 3.5 26.3.4 2.7.7 5.5.9 8.2 0 .5-.5 1-.7 1.5z"/><path d="m72.8 144.3c.8.1 1.6.1 2.3.4 12.4 5.2 24.7 10.3 37 15.5 9.9 4.2 19.9 8.3 29.8 12.4.3.1.6.2.9.4.3.3.5.7.6 1.1-.4.1-1 .4-1.3.3-1.6-.6-3.2-1.3-4.8-1.9-20.9-8.8-41.9-17.6-62.8-26.4-.7-.3-1.3-.7-2-1.1.2-.2.3-.4.3-.7z"/><path d="m280.3 254.1c.7.2 1.5.3 2.1.7 7.1 4.8 14.1 9.7 21.1 14.6l38 26.3c.4.2.7.4.9.7.2.4.2.8.3 1.2-.4 0-.8.1-1.1 0-.7-.4-1.4-.8-2-1.2-19.3-13.4-38.5-26.7-57.8-40.1-.6-.4-1.2-.9-1.8-1.4z"/><path d="m127.4 199.7c-13 .2-25.9.4-38.9.7-1.6 0-3.1.3-4.7.2-.5 0-1-.8-1.5-1.2.6-.3 1.1-.9 1.7-.9 7.7-.2 15.4-.3 23.1-.4l20.7-.6c1-.1 2 0 2.9.2.5.1.8.8 1.2 1.3-.5.2-.9.6-1.4.7-1.1.1-2.1.1-3.2 0z"/><path d="m7 146.4c1 0 2-.2 2.9 0 16 4.2 32 8.5 48 12.8.8.2 1.4.8 2.2 1.1l-.2.8c-.9-.1-1.9 0-2.8-.3-15.6-4.1-31.2-8.2-46.7-12.3-1.2-.3-2.3-.8-3.5-1.2z"/><path d="m65.4 314.3c-.4-.3-.9-.4-.9-.6 0-.4.1-.9.4-1.2 1.7-1.6 3.5-3.1 5.2-4.6 11.6-10.1 23.1-20.3 34.7-30.4.7-.6 1.4-1.2 2.2-1.7.4-.2 1-.1 1.5-.1-.1.5-.1 1.2-.4 1.5-2 1.9-4.2 3.7-6.2 5.5-11.6 10.1-23.1 20.3-34.7 30.4-.7.4-1.2.8-1.8 1.2z"/><path d="m237.5 26.4c-.9 4.1-1.8 7.9-2.7 11.8-3 13.2-6 26.3-9 39.5-.2.8-1 2.2-1.3 2.2-1.7-.4-.7-1.7-.5-2.5 3.6-16 7.2-31.9 10.9-47.9.2-1 .4-2.1.7-3.1.1-.4.7-.7 1.1-1 .3.3.6.7.8 1z"/><path d="m130.6 67.1c-.6-.7-1.3-1.4-1.8-2.2-6.6-12.7-13.1-25.3-19.6-38-.5-.9-1.2-1.8-1.5-2.8-.3-.8-.1-1.7-.2-2.5.6.5 1.6.8 1.9 1.5 2.1 3.8 4 7.7 6 11.5 5.1 9.8 10.1 19.6 15.2 29.4.4.8.5 1.7.8 2.5z"/><path d="m100.3 118.3c.8.4 1.6.7 2.3 1.2 7.6 6.1 15.2 12.2 22.8 18.3 8.4 6.7 16.9 13.5 25.3 20.2.6.5.9 1.3 1.3 2l-.7.6-51.6-41.4z"/><path d="m153.2 148.2c-.2.4-.3.8-.6.9-.4.1-.8 0-1.1-.2-.8-.6-1.5-1.3-2.1-2-8.8-9.3-17.5-18.6-26.3-28-.9-1-2-2-2.8-3-.3-.4-.2-1-.4-1.6.6 0 1.2.1 1.7.3.4.2.8.5 1 .9 9.6 10.3 19.3 20.6 28.9 30.9.7.6 1.2 1.2 1.7 1.8z"/><path d="m118 268.2c-.2-.8-.6-1.5-.5-1.8.4-.7 1-1.2 1.6-1.7 10.4-9.1 20.7-18.1 31.1-27.2.4-.5 1-.9 1.5-1.3.5-.2 1.1-.2 1.7-.3-.2.6-.2 1.4-.5 1.8-1.9 1.8-4 3.4-6 5.2-9 7.9-18 15.8-27 23.7-.4.5-.9.9-1.9 1.6z"/><path d="m92.1 84.8c-.8-.4-1.7-.7-2.3-1.3-7.6-8-15.1-16-22.6-24-1.4-1.5-2.8-2.9-4.2-4.5-.3-.4-.3-1-.4-1.6.6.1 1.4-.1 1.7.2 1.9 1.9 3.7 3.9 5.6 5.9 7.1 7.5 14.2 15.1 21.4 22.7.5.6 1 1.2 1.4 1.9z"/><path d="m264.7 191.9-1-1.2c.5-.3.9-.9 1.4-.9 10.3-1 20.7-1.9 31-2.8 1-.1 2.1-.4 3.1-.3.6 0 1.1.7 1.6 1-.5.4-1 1.1-1.5 1.1-3.2.4-6.4.6-9.6.9-6.7.6-13.4 1.2-20 1.9-1.5.1-3 .2-5 .3z"/><path d="m276.3 269.9c-.8-.4-1.8-.7-2.4-1.3-8.9-8.2-17.7-16.4-26.5-24.6-.3-.3-.7-.5-.8-.9-.1-.5-.2-.9-.2-1.4.4 0 1-.2 1.3 0 .7.4 1.3.9 1.8 1.5 8.5 7.7 16.9 15.5 25.3 23.3.8.7 1.4 1.7 2.1 2.6z"/><path d="m220.3 99.5c.1.7.3 1.4.2 2-2.2 9.8-4.4 19.7-6.6 29.5-.5 2.4-1 4.8-1.6 7.1-.1.5-.7.8-1.1 1.3-.2-.6-.7-1.2-.6-1.7 2.4-10.9 4.8-21.9 7.3-32.8.4-1.8.9-3.6 1.3-5.4z"/><path d="m159.5 328.2c-1.1 3.6-2.1 6.9-3.1 10.2-2.5 8.3-4.9 16.7-7.4 25-.3.9-1.1 1.5-1.7 2.3-.1-.9-.4-2-.1-2.8 3.4-11.5 6.8-22.9 10.3-34.4.2-.5.9-.9 1.3-1.3z"/><path d="m283.2 43.4c-.2.6-.4 1.1-.7 1.5-5.5 10.1-11.1 20.3-16.7 30.4-.3.6-1.2.9-1.8 1.3.1-.8-.1-1.7.2-2.3 5.4-10.1 10.9-20.2 16.5-30.3.2-.5.6-.9.9-1.3.2-.2.5-.3.8-.2.4.2.6.6.8.9z"/><path d="m211.5 296.6-.8 1c-.3-.4-.9-.8-1-1.3-.5-3-.8-6-1.2-9-.7-5.8-1.5-11.6-2.2-17.4-.6-4.4-1.2-8.7-1.7-13.1-.1-.4.5-.9.7-1.4.4.5 1 .9 1.1 1.4.5 3.4.8 6.8 1.3 10.2.7 5.7 1.4 11.3 2.2 17 .5 4.2 1 8.2 1.6 12.6z"/><path d="m368.4 156 1 .7c-.5.4-1 1-1.5 1.2-4.4 1.1-8.8 2.1-13.2 3.1-7.8 1.8-15.5 3.6-23.3 5.4-.5.1-1.1-.2-1.7-.4.5-.4.9-1.1 1.4-1.2 12-2.9 24-5.8 36.1-8.6.3-.1.6-.1 1.2-.2z"/><path d="m144.8 222.9c-.6.4-1.1.7-1.7 1-9.2 4.4-18.4 8.7-27.6 13.1-1.2.6-2.3 1.2-3.6 1.7-.5.2-1.1-.2-1.7-.4.3-.4.5-1 1-1.2 10.4-5 20.9-9.9 31.4-14.8.6-.3 1.4 0 2.1 0 0 .1.1.3.1.6z"/><path d="m160 321.9c0-.7-.2-1.5 0-2.2 2.9-9.9 5.9-19.8 9-29.7.2-.6.9-1 1.4-1.4.1.7.5 1.4.3 2-2.9 9.8-5.8 19.6-8.7 29.4-.2.8-.7 1.5-1.1 2.2z"/><path d="m91.8 112.8-31.4-25.2.4-.8c.7.3 1.5.4 2 .9 5.7 4.5 11.3 9.1 17 13.6 3.6 2.8 7.2 5.6 10.7 8.5.8.7 1.5 1.4 2.1 2.2z"/><path d="m77.8 254.6c-.3-.2-.9-.7-.8-.7.2-.5.6-.9 1-1.2 2.9-1.4 5.8-2.8 8.7-4.1l16.6-7.8c.3-.1.6-.4.9-.4.7 0 1.3.1 2 .2-.4.5-.7 1.2-1.3 1.5-8.4 3.9-16.9 7.9-25.4 11.9-.6.2-1.1.4-1.7.6z"/><path d="m220.6 250.9c2.2 1.1 14.9 30.5 14.2 32.6-.7-.9-1.3-1.5-1.7-2.2-4-9.2-7.9-18.4-11.8-27.6-.3-.7-.4-1.5-.7-2.8z"/><path d="m171.2 282.8c.7-2.4 1.4-4.6 2.1-6.8 2.1-7 4.2-14 6.4-21 .2-.5.8-.9 1.3-1.4.1.6.5 1.3.4 1.9-2.6 9-5.3 18.1-8.1 27.1-.2.5-.7 1-1.1 1.4z"/><path d="m276.7 153.7c-.4.4-.7.7-1.1 1-8.1 4.5-16.2 9.1-24.3 13.5-.4.2-1.2 0-1.7 0 .4-.6.6-1.4 1.1-1.7 5.9-3.3 11.8-6.6 17.7-10 2-1.1 4-2.4 6-3.4.6-.3 1.5 0 2.3 0-.1.2 0 .4 0 .6z"/><path d="m362.8 227.3c4 .8 7.5 1.4 11 2.1 4.2.8 8.5 1.6 12.7 2.4.5 0 .9.2 1.3.4.5.3.9.7 1.3 1.2-.6.2-1.2.8-1.8.7-2.7-.4-5.3-1-7.9-1.5-5.5-1.1-10.9-2.1-16.4-3.2-.6-.1-1.1-.8-1.7-1.2z"/><path d="m64.3 261-5 2.4-17.8 8.6c-.2.1-.5.3-.7.3-.7 0-1.4-.2-2.2-.3.5-.5.8-1.2 1.4-1.5 7.2-3.5 14.4-6.9 21.7-10.3.9-.4 1.9-.9 2.6.8z"/><path d="m98.3 90.2c.9.6 1.5.9 1.9 1.3 4.4 4.7 8.8 9.4 13.2 14.2.3.3.5.6.7.9.1.3.2.9 0 1-.4.2-.8.3-1.2.1-.7-.6-1.4-1.2-2-1.9-3.9-4.1-7.7-8.1-11.5-12.2-.5-.5-1-1.1-1.3-1.7-.2-.2.1-.8.2-1.7z"/><path d="m115.4 327.1c-3 4.6-6 9.3-8.9 13.9-.9 1.3-1.7 2.7-2.6 3.9-.3.4-.9.4-1.4.7 0-.6-.3-1.3 0-1.7 3.5-5.6 7.1-11.2 10.8-16.7.3-.5 1.2-.6 1.8-.9 0 .3.1.5.3.8z"/><path d="m267.7 245c-2.1.3-20.8-12.7-21.7-14.8 1.1.4 1.9.6 2.5 1.1 5.9 4 11.8 8.1 17.6 12.2.7.5 1.2 1 1.6 1.5z"/><path d="m158.4 5.1c.2-.3.5-1.1.9-1.1.6 0 1.2.3 1.6.8s.6 1.2.7 1.8c.6 3.4 1.3 6.7 1.8 10.1.1.7-.4 1.5-.6 2.2-.7-.5-1.7-.9-1.9-1.6-1-3.9-1.7-7.9-2.5-12.2z"/><path d="m240.1 155.5c-.3-.3-.8-.5-.7-.7 0-.5.2-1 .5-1.4 1.9-2 3.9-4 5.8-5.9 2.4-2.4 4.7-4.8 7.2-7.1.4-.4 1.2-.4 1.8-.6-.1.6-.1 1.4-.4 1.8-4.2 4.4-8.5 8.7-12.8 13-.5.2-.9.6-1.4.9z"/><path d="m34.8 128.9c.9-.2 1.4-.4 1.7-.3 6.1 2.5 12.1 5 18.1 7.6.3.1.5.7.7 1.1-.5 0-1 .3-1.4.1-5.9-2.4-11.8-4.8-17.6-7.3-.3-.1-.6-.5-1.5-1.2z"/><path d="m138.3 205.8 1.3.9c-.5.4-1 1.1-1.6 1.2-4.8.8-9.5 1.5-14.3 2.1-.6.1-1.3-.4-1.9-.6.5-.3 1-.8 1.6-.9 4.8-1 9.6-1.8 14.9-2.7z"/></g></svg>
